<svg width="176" height="127" fill="none" xmlns="http://www.w3.org/2000/svg"><path d="M3.85 20.79C4.983 12.477 11.484 6.082 19.8 4.966 35.202 2.9 61.222 0 86 0c25.454 0 52.219 3.06 67.435 5.133 7.688 1.048 13.898 6.635 15.666 14.189C172.037 31.872 176 51.495 176 66c0 14.004-3.694 32.779-6.592 45.353-1.896 8.229-9.018 14.053-17.454 14.444-16.649.771-44.798 1.517-65.954-.797-19.58-2.142-45.152-1.662-62.051-.968-10.221.42-19.298-6.669-20.565-16.82C1.966 95.844.5 80.472.5 65.5c0-16.622 1.807-33.408 3.35-44.71z" fill="#fff"/></svg>