<svg width="258" height="131" fill="none" xmlns="http://www.w3.org/2000/svg"><path d="M.935 30.009C-1.358 17.558 7.823 5.676 20.477 5.273 46.8 4.435 89.093 2.923 120.5 1c36.048-2.207 89.686 1.54 115.523 3.674 8.893.735 16.086 7.367 17.401 16.193C255.272 33.262 257.5 51.01 257.5 64.5c0 13.504-2.233 32.131-4.081 45.239-1.303 9.242-9.002 16.117-18.324 16.582-28.467 1.419-88.6 4.179-125.595 4.179-28.773 0-64.197-3.339-88.977-6.159C6.139 122.705-1.621 106.338 2.59 92.488 4.582 85.934 6 78.86 6 72 6 60.38 3.457 43.695.935 30.008z" fill="#fff"/></svg>