<svg width="155" height="116" fill="none" xmlns="http://www.w3.org/2000/svg"><path d="M1.463 23.202C.406 10.98 10.065.282 22.323.772 37.762 1.386 58.499 2.413 77 4c17.143 1.47 37.165.54 53.133-.791 13.97-1.165 25.741 11.513 23.774 25.393-1.334 9.41-2.407 19.684-2.407 28.398 0 9.641 1.313 21.894 2.841 32.886 1.908 13.733-9.828 26.014-23.622 24.607C117.844 113.18 102.407 112 88.5 112c-18.24 0-45.536 2.029-65.185 3.728-12.588 1.088-23.203-9.472-22.26-22.071C2.036 80.554 3 64.809 3 53.5c0-9.727-.713-20.777-1.537-30.298z" fill="#fff"/></svg>