<svg width="1116" height="177" fill="none" xmlns="http://www.w3.org/2000/svg"><path d="M2.893 25.35c.786-10.162 9.241-17.801 19.433-17.8 78.047.007 394.297-.3 583.308-5.517 33.136-.915 58.706-2.32 91.538 0 44.629 3.153 315.358 4.935 393.878 5.39 11.61.068 20.6 9.96 20.14 21.561-.71 17.585-1.08 42.53 1.18 61.182 3.38 27.78 3.1 51.531 2.24 66.776-.58 10.28-9.44 17.692-19.72 17.258-63.53-2.677-282.405-10.835-467.629-4.913-280.316 8.961-534.745 6.822-605.088 5.974-10.761-.13-19.345-8.769-19.586-19.528C2.203 138.592 1.6 113.652.995 96.5c-.944-26.779.573-53.998 1.898-71.15z" fill="#fff"/></svg>