<svg
        width="157"
        height="124"
        fill="none"
        xmlns="http://www.w3.org/2000/svg"
>
    <path
            d="M1.1 30.26C-.143 17.678 9.81 6.318 22.455 6.173 39.446 5.977 62 5.066 79 2c18.811-3.392 44.47-1.078 61.373 1.193 10.085 1.355 17.011 10.461 16.357 20.615-.81 12.575-1.712 29.396-1.73 42.192-.016 11.03.678 24.869 1.402 36.262.744 11.702-8.467 21.717-20.191 21.486-17.938-.354-43.319-1.204-61.711-3.248-15.242-1.694-33.645-.929-48.582.312C12.21 121.951.332 109.827 1.568 96.127 2.376 87.18 3 76.777 3 66c0-12.79-.88-25.403-1.9-35.74z"
            fill="#F4CD00"
    />
</svg>