<svg
        class="shadow-lg"

        width="266"
        height="122"
        fill="none"
        xmlns="http://www.w3.org/2000/svg"
>
    <path
            d="M1.573 19.267c1.06-9.939 9.833-16.894 19.822-16.532C47.005 3.663 95.59 4.821 130.5 2c36.167-2.923 87.014-1.574 111.783-.636 8.77.332 16.184 6.443 17.957 15.04C262.82 28.911 266 47.143 266 61c0 13.229-2.899 30.448-5.407 42.866-1.899 9.407-10.506 15.743-20.094 15.347-25.451-1.05-74.996-2.428-109.999.787-33.963 3.119-81.618 1.914-107.668.881-10.587-.42-18.85-9.154-19.196-19.744C3.264 89.783 2.514 74.882 1 61c-1.587-14.542-.656-30.203.573-41.733z"
            fill="#fff"
    />
</svg>